<svg width="40" height="39" viewBox="0 0 40 39" fill="none" xmlns="http://www.w3.org/2000/svg">
<g filter="url(#filter0_i_1378_217)">
<path d="M20.2999 39C31.0695 39 39.7999 30.2696 39.7999 19.5C39.7999 8.73045 31.0695 0 20.2999 0C9.53038 0 0.799927 8.73045 0.799927 19.5C0.799927 30.2696 9.53038 39 20.2999 39Z" fill="url(#paint0_linear_1378_217)"/>
</g>
<g clip-path="url(#clip0_1378_217)">
<path d="M19.7903 5.23413L23.4012 8.92095L14.3088 17.9862L10.6979 14.3861L19.7903 5.23413Z" fill="#F0B90B"/>
<path d="M25.2719 10.6995L28.8828 14.3863L14.3088 28.9167L10.6979 25.3166L25.2719 10.6995Z" fill="#F0B90B"/>
<path d="M8.82719 16.1643L12.4381 19.8511L8.82719 23.4512L5.21631 19.8511L8.82719 16.1643Z" fill="#F0B90B"/>
<path d="M30.7535 16.1643L34.3644 19.8511L19.7903 34.3815L16.1794 30.7815L30.7535 16.1643Z" fill="#F0B90B"/>
</g>
<defs>
<filter id="filter0_i_1378_217" x="0.799927" y="0" width="39" height="40" filterUnits="userSpaceOnUse" color-interpolation-filters="sRGB">
<feFlood flood-opacity="0" result="BackgroundImageFix"/>
<feBlend mode="normal" in="SourceGraphic" in2="BackgroundImageFix" result="shape"/>
<feColorMatrix in="SourceAlpha" type="matrix" values="0 0 0 0 0 0 0 0 0 0 0 0 0 0 0 0 0 0 127 0" result="hardAlpha"/>
<feOffset dy="1"/>
<feGaussianBlur stdDeviation="2"/>
<feComposite in2="hardAlpha" operator="arithmetic" k2="-1" k3="1"/>
<feColorMatrix type="matrix" values="0 0 0 0 1 0 0 0 0 1 0 0 0 0 1 0 0 0 1 0"/>
<feBlend mode="normal" in2="shape" result="effect1_innerShadow_1378_217"/>
</filter>
<linearGradient id="paint0_linear_1378_217" x1="20.2999" y1="39" x2="18.9888" y2="3.14048" gradientUnits="userSpaceOnUse">
<stop stop-color="#959595"/>
<stop offset="1" stop-color="#2E2E2E"/>
</linearGradient>
<clipPath id="clip0_1378_217">
<rect width="31.7979" height="31.7979" fill="white" transform="translate(5.21631 3.97583)"/>
</clipPath>
</defs>
</svg>
