<svg width="30" height="30" viewBox="0 0 30 30" fill="none" xmlns="http://www.w3.org/2000/svg">
<g filter="url(#filter0_i_1558_423)">
<path d="M15 30C23.2843 30 30 23.2843 30 15C30 6.71573 23.2843 0 15 0C6.71573 0 0 6.71573 0 15C0 23.2843 6.71573 30 15 30Z" fill="url(#paint0_linear_1558_423)"/>
</g>
<path d="M10.092 9.15182H8.18451C7.7098 9.15182 7.32141 9.54021 7.32141 10.0149C7.32141 10.4896 7.7098 10.878 8.18451 10.878H10.092C10.4286 11.6375 11.1881 12.1727 12.0684 12.1727H12.9315C13.8119 12.1727 14.5714 11.6375 14.908 10.878H21.994C22.4687 10.878 22.8571 10.4896 22.8571 10.0149C22.8571 9.54021 22.4687 9.15182 21.994 9.15182H14.908C14.5714 8.3923 13.8119 7.85718 12.9315 7.85718H12.0684C11.1881 7.85718 10.4286 8.3923 10.092 9.15182ZM12.9315 10.4465H12.0684C11.8268 10.4465 11.6369 10.2566 11.6369 10.0149C11.6369 9.77325 11.8268 9.58337 12.0684 9.58337H12.9315C13.1732 9.58337 13.3631 9.77325 13.3631 10.0149C13.3631 10.2566 13.1732 10.4465 12.9315 10.4465Z" fill="#DEBCFF"/>
<path d="M16.1336 13.8989H8.18451C7.7098 13.8989 7.32141 14.2873 7.32141 14.762C7.32141 15.2367 7.7098 15.6251 8.18451 15.6251H16.1164C16.4357 16.3846 17.1952 16.9197 18.0669 16.9197H18.9991C19.8622 16.9197 20.6044 16.4019 20.9411 15.6251H21.9854C22.4601 15.6251 22.8485 15.2367 22.8485 14.762C22.8485 14.2873 22.4601 13.8989 21.9854 13.8989H20.9497C20.6303 13.1394 19.8708 12.6042 18.9991 12.6042H18.0669C17.2038 12.6042 16.4616 13.1221 16.125 13.8989H16.1336ZM18.0756 14.3304H19.0077C19.2235 14.3304 19.4047 14.5117 19.4047 14.7965C19.4047 15.0123 19.2235 15.1935 19.0077 15.1935H18.0756C17.8598 15.1935 17.6786 15.0123 17.6786 14.7274C17.6786 14.5117 17.8598 14.3304 18.0756 14.3304Z" fill="#DEBCFF"/>
<path d="M11.8181 18.646H8.18451C7.7098 18.646 7.32141 19.0344 7.32141 19.5091C7.32141 19.9838 7.7098 20.3722 8.18451 20.3722H11.8095C12.1288 21.1317 12.8884 21.6668 13.7601 21.6668H14.6922C15.5553 21.6668 16.2976 21.1489 16.6342 20.3722H21.994C22.4687 20.3722 22.8571 19.9838 22.8571 19.5091C22.8571 19.0344 22.4687 18.646 21.994 18.646H16.6428C16.3235 17.8864 15.564 17.3513 14.6922 17.3513H13.7601C12.897 17.3513 12.1547 17.8692 11.8268 18.646H11.8181ZM13.7515 19.0775H14.6836C14.8994 19.0775 15.0806 19.2587 15.0806 19.5436C15.0806 19.7593 14.8994 19.9406 14.6836 19.9406H13.7515C13.5357 19.9406 13.3545 19.7593 13.3545 19.4745C13.3545 19.2587 13.5357 19.0775 13.7515 19.0775Z" fill="#DEBCFF"/>
<defs>
<filter id="filter0_i_1558_423" x="0" y="0" width="30" height="31" filterUnits="userSpaceOnUse" color-interpolation-filters="sRGB">
<feFlood flood-opacity="0" result="BackgroundImageFix"/>
<feBlend mode="normal" in="SourceGraphic" in2="BackgroundImageFix" result="shape"/>
<feColorMatrix in="SourceAlpha" type="matrix" values="0 0 0 0 0 0 0 0 0 0 0 0 0 0 0 0 0 0 127 0" result="hardAlpha"/>
<feOffset dy="1"/>
<feGaussianBlur stdDeviation="2"/>
<feComposite in2="hardAlpha" operator="arithmetic" k2="-1" k3="1"/>
<feColorMatrix type="matrix" values="0 0 0 0 0.783 0 0 0 0 0.6125 0 0 0 0 1 0 0 0 1 0"/>
<feBlend mode="normal" in2="shape" result="effect1_innerShadow_1558_423"/>
</filter>
<linearGradient id="paint0_linear_1558_423" x1="14.2857" y1="3.21429" x2="14.9854" y2="32.1173" gradientUnits="userSpaceOnUse">
<stop stop-color="#471981"/>
<stop offset="1" stop-color="#7933D3"/>
</linearGradient>
</defs>
</svg>
